<svg width="104" height="22" viewBox="0 0 104 22" fill="none" xmlns="http://www.w3.org/2000/svg">
<path d="M13.9984 17.5035H4.48336V0.938212H0.757595V21H13.9984V17.5035ZM30.0268 6.24026H26.473V13.3765C26.473 16.787 24.954 18.0194 23.2918 18.0194C21.7728 18.0194 20.7124 17.1596 20.7124 15.1534V6.24026H17.1586V15.4114C17.1586 19.1944 19.3654 21.172 22.4606 21.172C24.4955 21.172 25.6992 20.2835 26.559 18.9078V21H30.0268V6.24026ZM50.5973 5.98232C47.932 5.98232 46.8142 7.35799 46.241 8.41839C45.5532 6.87077 44.0916 5.98232 42.114 5.98232C39.8786 5.98232 38.7035 7.24335 38.245 8.41839V6.24026H34.7485V21H38.3023V12.6887C38.3023 10.2526 39.4487 9.1922 41.1109 9.1922C42.6013 9.1922 43.4897 9.99468 43.4897 11.7429V21H47.0435V12.7173C47.0435 10.224 48.1899 9.1922 49.8808 9.1922C51.3998 9.1922 52.2309 9.99468 52.2309 11.7429V21H55.7847V11.0551C55.7847 7.87386 53.7785 5.98232 50.5973 5.98232ZM68.5643 5.98232C66.5581 5.98232 64.7525 6.84211 63.9214 8.41839V0.622956H60.3676V21H63.8354V19.2231C64.7239 20.5988 66.5008 21.3153 68.3637 21.3153C71.9461 21.3153 75.1273 18.7932 75.1273 13.6058C75.1273 8.53303 72.1754 5.98232 68.5643 5.98232ZM67.7045 18.1627C65.7556 18.1627 63.8068 16.7297 63.8068 13.6918C63.8068 10.6825 65.7556 9.22087 67.7045 9.22087C69.768 9.22087 71.5162 10.7112 71.5162 13.6918C71.5162 16.701 69.768 18.1627 67.7045 18.1627ZM91.5747 14.6949V13.2332C91.5747 8.36107 88.5368 5.98232 84.9543 5.98232C81.1999 5.98232 77.8467 8.56169 77.8467 13.7204C77.8467 18.8505 81.1426 21.3153 84.8683 21.3153C87.8776 21.3153 90.7149 19.6817 91.46 16.5577H88.1355C87.6196 17.7328 86.4159 18.2487 85.0116 18.2487C82.8908 18.2487 81.3718 17.1023 81.2858 14.6949H91.5747ZM84.9256 9.04891C86.8458 9.04891 88.0782 10.138 88.0782 12.0868H81.3718C81.6871 9.93736 83.2347 9.04891 84.9256 9.04891ZM103.657 6.0683H102.682C100.963 6.0683 99.5871 6.81345 98.842 8.41839V6.24026H95.3168V21H98.8706V13.7778C98.8706 10.8831 100.218 9.53612 102.711 9.53612H103.657V6.0683Z" fill="#121212"/>
</svg>
